<?xml version="1.0" encoding="utf-8"?>
<!-- Generator: Adobe Adobe Illustrator 24.2.0, SVG Export Plug-In . SVG Version: 6.00 Build 0)  -->
<svg version="1.1" id="レイヤー_1" xmlns="http://www.w3.org/2000/svg" xmlns:xlink="http://www.w3.org/1999/xlink" x="0px"
	 y="0px" width="740px" height="768px" viewBox="0 0 740 768" style="enable-background:new 0 0 740 768;" xml:space="preserve">
<style type="text/css">
	.st0{fill:#FFFFFF;stroke:#000000;stroke-miterlimit:10;}
</style>
<path class="st0" d="M429.91,666.52c99.6-37.59,169.27-143.03,164.79-249.39c-4.47-106.36-82.75-205.57-185.15-234.67
	s-221.15,14.12-280.89,102.24s-55.93,214.43,9.02,298.78S324.66,706.25,429.91,666.52z"/>
<path class="st0" d="M423.66,649.81c92.62-34.96,157.41-133.01,153.26-231.93c-4.16-98.91-76.95-191.18-172.18-218.24
	s-205.67,13.13-261.22,95.08s-52.01,199.42,8.39,277.86S325.77,686.75,423.66,649.81z"/>
<path class="st0" d="M343.58,190.73c3.96-1.53,6.21-6.47,4.78-10.46c-1.44-3.99-6.32-6.37-10.34-5.03
	c-4.03,1.34-6.52,6.16-5.27,10.22S338.88,192.54,343.58,190.73z"/>
<path class="st0" d="M343.58,681.7c3.96-1.53,6.21-6.47,4.78-10.46c-1.44-3.99-6.32-6.37-10.34-5.03
	c-4.03,1.34-6.52,6.16-5.27,10.22S338.88,683.52,343.58,681.7z"/>
<path class="st0" d="M588.26,435.5c3.96-1.53,6.21-6.47,4.78-10.46c-1.44-3.99-6.32-6.37-10.34-5.03s-6.52,6.16-5.27,10.22
	S583.56,437.32,588.26,435.5z"/>
<path class="st0" d="M99.05,443.7c3.96-1.53,6.21-6.47,4.78-10.46c-1.44-3.99-6.32-6.37-10.34-5.03c-4.03,1.34-6.52,6.16-5.27,10.22
	S94.35,445.52,99.05,443.7z"/>
</svg>
