<?xml version="1.0" encoding="UTF-8"?>
<svg id="_レイヤー_2" data-name="レイヤー 2" xmlns="http://www.w3.org/2000/svg" viewBox="0 0 88.77 694.75">
  <defs>
    <style>
      .cls-1 {
        fill: #00679f;
      }

      .cls-2 {
        fill: #fff;
      }
    </style>
  </defs>
  <g id="_レイヤー_1-2" data-name="レイヤー 1">
    <g>
      <path class="cls-2" d="m31.21.07c-3.84,48.67-21.63,113.51-6.66,150.26,14.97,36.75,13.97,72.76-6.26,106.9-41.01,69.23,36.75,144.52,53.97,223.12,17.22,78.61-44.29,116.69-27.69,214.24"/>
      <path class="cls-1" d="m32.16.15c-2.2,29.94-7.97,59.54-10.3,89.41-1.11,14.72-1.55,29.76,1,44.29,1.14,7.34,3.81,14.11,6.66,20.89,2.79,7.13,5.02,14.5,6.63,22.05,5.87,26.55,1.76,55.34-11.07,79.42-3.41,6.2-6.82,12.75-8.79,19.53-5.22,16.9-3.69,34.95,1.17,51.83,14.95,51.06,52.71,91.84,66.49,143.66,20.54,75.25-30.87,118.72-37.37,189.79-1.16,11.11-1.39,22.16-1.09,33.43,0,0-1.81.31-1.81.31-4.59-14.5-7.17-29.82-7.49-45.39-1.06-30.66,8.81-61.59,17.45-90.14,2.98-10.45,5.61-20.5,7.05-31.04,2.49-16.79,1.18-33.85-2.89-50.26-12.22-50.38-41.52-96.25-54.29-146.77-6.26-25.3-4.76-52.79,9.26-75.38,22.84-35.96,22.36-70.8,7.23-109.69-3.23-11.11-3.89-22.82-3.69-34.24.51-22.65,4.3-45.06,7.82-67.32,2.37-14.81,4.76-29.62,6.12-44.52,0,0,1.9.15,1.9.15h0Z"/>
    </g>
  </g>
</svg>