<?xml version="1.0" encoding="UTF-8"?>
<svg id="_レイヤー_2" data-name="レイヤー 2" xmlns="http://www.w3.org/2000/svg" viewBox="0 0 171.89 466.48">
  <defs>
    <style>
      .cls-1 {
        fill: #fff;
      }

      .cls-2 {
        fill: #1a006a;
      }
    </style>
  </defs>
  <g id="_レイヤー_1-2" data-name="レイヤー 1">
    <g>
      <path class="cls-1" d="m171.02.4c-14.58,31.47-24.09,95.03-44.4,114.57-27.84,26.78-57.12,35.91-43.68,85.83,18.63,69.2-59.77,113.76-67.73,170.37-7.95,56.61,6.13,26.06-6.91,95.14"/>
      <path class="cls-2" d="m171.89.8c-7.39,16.56-13.74,43.36-18.86,61.09-4.55,15.48-9,31.3-17.1,45.51-2.73,4.85-6.5,9.21-10.63,12.97-7.83,7.52-16.34,14.2-23.86,21.39-7.25,6.9-13.63,14.87-15.85,24.62-2.25,9.35-.97,19.5,1.61,29.32,1.07,3.98,2.33,7.92,3.08,11.99,3.83,18.26.62,37.77-6.53,54.67-8.58,20.36-21.09,38.62-32.2,57.21-10.23,17.33-20.93,35.6-23.09,55.02-.59,4.38-1.24,8.97-1.94,13.33-1.06,7.6-2.04,14-1.9,21.43.16,5.32-.04,12.39-1.16,17.81-2.78,13.85-7.72,26.87-14.27,39.33,0,0-1.8-.34-1.8-.34-2.14-16.15-1.18-31.44-3.87-46.96-1.02-4.99-2.57-10.68-3.05-16.16-1-11.84-.39-22.77,1.41-34.23,3.53-23.38,18.27-43.64,32.54-61.22,26.31-31.93,54.68-65.46,42.3-109.42-2.3-11.13-3.19-22.97.12-34.14,3.17-11.18,11-20.46,19.5-27.8,10.23-9.01,21.11-16.08,30.41-25.59,5.08-5.81,8.58-12.82,11.77-19.91,7.61-17.1,14.62-42.53,20.4-60.53,3.3-10.18,6.62-20.41,11.23-30.18,0,0,1.73.8,1.73.8h0Z"/>
    </g>
  </g>
</svg>